<svg xmlns="http://www.w3.org/2000/svg" version="1.1" xmlns:xlink="http://www.w3.org/1999/xlink" xmlns:svgjs="http://svgjs.com/svgjs" width="1476" height="1024" preserveAspectRatio="none" viewBox="0 0 1476 1024"><g mask="url(&quot;#SvgjsMask1791&quot;)" fill="none"><rect width="1476" height="1024" x="0" y="0" fill="url(#SvgjsRadialGradient1792)"></rect><g mask="url(&quot;#SvgjsMask1793&quot;)"><path d="M277.5 388.5L314.5 388.5L351.5 388.5M55.5 462.5L92.5 462.5L129.5 462.5L166.5 462.5M425.5 462.5L462.5 462.5L499.5 462.5L536.5 462.5M-18.5 499.5L18.5 462.5L55.5 462.5L92.5 425.5L129.5 425.5L166.5 425.5L203.5 425.5L240.5 388.5L277.5 388.5L314.5 425.5L351.5 462.5L388.5 462.5L425.5 462.5L462.5 499.5L499.5 499.5" stroke="#dd1133" stroke-width="6.17"></path><path d="M490.25 499.5 a9.25 9.25 0 1 0 18.5 0 a9.25 9.25 0 1 0 -18.5 0zM342.25 388.5 a9.25 9.25 0 1 0 18.5 0 a9.25 9.25 0 1 0 -18.5 0zM157.25 462.5 a9.25 9.25 0 1 0 18.5 0 a9.25 9.25 0 1 0 -18.5 0zM527.25 462.5 a9.25 9.25 0 1 0 18.5 0 a9.25 9.25 0 1 0 -18.5 0z" fill="#dd1133"></path><path d="M18.5 499.5L55.5 536.5M92.5 499.5L129.5 536.5M-18.5 536.5L18.5 499.5L55.5 499.5L92.5 499.5L129.5 499.5" stroke="rgba(242, 248, 254, 1)" stroke-width="6.17"></path><path d="M120.25 499.5 a9.25 9.25 0 1 0 18.5 0 a9.25 9.25 0 1 0 -18.5 0zM46.25 536.5 a9.25 9.25 0 1 0 18.5 0 a9.25 9.25 0 1 0 -18.5 0zM120.25 536.5 a9.25 9.25 0 1 0 18.5 0 a9.25 9.25 0 1 0 -18.5 0z" fill="rgba(242, 248, 254, 1)"></path><path d="M462.5 351.5L499.5 388.5L536.5 388.5L573.5 388.5L610.5 388.5M388.5 351.5L425.5 388.5L462.5 388.5L499.5 425.5L536.5 425.5L573.5 425.5M499.5 351.5L536.5 314.5L573.5 314.5L610.5 351.5M-18.5 462.5L18.5 425.5L55.5 425.5L92.5 388.5L129.5 388.5L166.5 388.5L203.5 388.5L240.5 351.5L277.5 351.5L314.5 351.5L351.5 351.5L388.5 351.5L425.5 351.5L462.5 351.5L499.5 351.5L536.5 351.5" stroke="#dd1133" stroke-width="6.17"></path><path d="M527.25 351.5 a9.25 9.25 0 1 0 18.5 0 a9.25 9.25 0 1 0 -18.5 0zM601.25 388.5 a9.25 9.25 0 1 0 18.5 0 a9.25 9.25 0 1 0 -18.5 0zM564.25 425.5 a9.25 9.25 0 1 0 18.5 0 a9.25 9.25 0 1 0 -18.5 0zM601.25 351.5 a9.25 9.25 0 1 0 18.5 0 a9.25 9.25 0 1 0 -18.5 0z" fill="#dd1133"></path><path d="M166.5 573.5L203.5 536.5L240.5 536.5L277.5 536.5M-18.5 573.5L18.5 573.5L55.5 573.5L92.5 573.5L129.5 573.5L166.5 573.5L203.5 573.5L240.5 573.5L277.5 573.5" stroke="rgba(242, 248, 254, 1)" stroke-width="6.17"></path><path d="M268.25 573.5 a9.25 9.25 0 1 0 18.5 0 a9.25 9.25 0 1 0 -18.5 0zM268.25 536.5 a9.25 9.25 0 1 0 18.5 0 a9.25 9.25 0 1 0 -18.5 0z" fill="rgba(242, 248, 254, 1)"></path><path d="M-18.5 425.5L18.5 388.5L55.5 388.5L92.5 351.5L129.5 351.5L166.5 351.5L203.5 351.5L240.5 314.5L277.5 314.5L314.5 314.5L351.5 314.5L388.5 314.5L425.5 314.5L462.5 314.5" stroke="#dd1133" stroke-width="6.17"></path><path d="M453.25 314.5 a9.25 9.25 0 1 0 18.5 0 a9.25 9.25 0 1 0 -18.5 0z" fill="#dd1133"></path><path d="M425.5 647.5L462.5 610.5M351.5 610.5L388.5 573.5M499.5 647.5L536.5 610.5L573.5 573.5L610.5 573.5L647.5 573.5M462.5 647.5L499.5 684.5L536.5 684.5M-18.5 610.5L18.5 610.5L55.5 610.5L92.5 610.5L129.5 610.5L166.5 610.5L203.5 610.5L240.5 610.5L277.5 610.5L314.5 610.5L351.5 610.5L388.5 610.5L425.5 647.5L462.5 647.5L499.5 647.5L536.5 647.5L573.5 647.5L610.5 647.5" stroke="rgba(242, 248, 254, 1)" stroke-width="6.17"></path><path d="M601.25 647.5 a9.25 9.25 0 1 0 18.5 0 a9.25 9.25 0 1 0 -18.5 0zM453.25 610.5 a9.25 9.25 0 1 0 18.5 0 a9.25 9.25 0 1 0 -18.5 0zM379.25 573.5 a9.25 9.25 0 1 0 18.5 0 a9.25 9.25 0 1 0 -18.5 0zM638.25 573.5 a9.25 9.25 0 1 0 18.5 0 a9.25 9.25 0 1 0 -18.5 0zM527.25 684.5 a9.25 9.25 0 1 0 18.5 0 a9.25 9.25 0 1 0 -18.5 0z" fill="rgba(242, 248, 254, 1)"></path><path d="M388.5 277.5L425.5 240.5L462.5 203.5L499.5 203.5M166.5 314.5L203.5 277.5M277.5 277.5L314.5 240.5L351.5 240.5M-18.5 388.5L18.5 351.5L55.5 351.5L92.5 314.5L129.5 314.5L166.5 314.5L203.5 314.5L240.5 277.5L277.5 277.5L314.5 277.5L351.5 277.5L388.5 277.5L425.5 277.5L462.5 277.5L499.5 277.5" stroke="#dd1133" stroke-width="6.17"></path><path d="M490.25 277.5 a9.25 9.25 0 1 0 18.5 0 a9.25 9.25 0 1 0 -18.5 0zM490.25 203.5 a9.25 9.25 0 1 0 18.5 0 a9.25 9.25 0 1 0 -18.5 0zM194.25 277.5 a9.25 9.25 0 1 0 18.5 0 a9.25 9.25 0 1 0 -18.5 0zM342.25 240.5 a9.25 9.25 0 1 0 18.5 0 a9.25 9.25 0 1 0 -18.5 0z" fill="#dd1133"></path><path d="M351.5 647.5L388.5 684.5L425.5 721.5L462.5 721.5M-18.5 647.5L18.5 647.5L55.5 647.5L92.5 647.5L129.5 647.5L166.5 647.5L203.5 647.5L240.5 647.5L277.5 647.5L314.5 647.5L351.5 647.5L388.5 647.5L425.5 684.5" stroke="rgba(242, 248, 254, 1)" stroke-width="6.17"></path><path d="M416.25 684.5 a9.25 9.25 0 1 0 18.5 0 a9.25 9.25 0 1 0 -18.5 0zM453.25 721.5 a9.25 9.25 0 1 0 18.5 0 a9.25 9.25 0 1 0 -18.5 0z" fill="rgba(242, 248, 254, 1)"></path><path d="M-18.5 351.5L18.5 314.5L55.5 314.5L92.5 277.5L129.5 277.5" stroke="#dd1133" stroke-width="6.17"></path><path d="M120.25 277.5 a9.25 9.25 0 1 0 18.5 0 a9.25 9.25 0 1 0 -18.5 0z" fill="#dd1133"></path><path d="M-18.5 684.5L18.5 684.5" stroke="rgba(242, 248, 254, 1)" stroke-width="6.17"></path><path d="M9.25 684.5 a9.25 9.25 0 1 0 18.5 0 a9.25 9.25 0 1 0 -18.5 0z" fill="rgba(242, 248, 254, 1)"></path><path d="M129.5 240.5L166.5 203.5M18.5 277.5L55.5 240.5L92.5 203.5L129.5 203.5M-18.5 314.5L18.5 277.5L55.5 277.5L92.5 240.5L129.5 240.5L166.5 240.5L203.5 240.5" stroke="#dd1133" stroke-width="6.17"></path><path d="M194.25 240.5 a9.25 9.25 0 1 0 18.5 0 a9.25 9.25 0 1 0 -18.5 0zM157.25 203.5 a9.25 9.25 0 1 0 18.5 0 a9.25 9.25 0 1 0 -18.5 0zM120.25 203.5 a9.25 9.25 0 1 0 18.5 0 a9.25 9.25 0 1 0 -18.5 0z" fill="#dd1133"></path><path d="M55.5 721.5L92.5 684.5L129.5 684.5M18.5 721.5L55.5 758.5L92.5 758.5L129.5 758.5L166.5 721.5M240.5 684.5L277.5 721.5M-18.5 721.5L18.5 721.5L55.5 721.5L92.5 721.5L129.5 721.5L166.5 684.5L203.5 684.5L240.5 684.5L277.5 684.5" stroke="rgba(242, 248, 254, 1)" stroke-width="6.17"></path><path d="M268.25 684.5 a9.25 9.25 0 1 0 18.5 0 a9.25 9.25 0 1 0 -18.5 0zM120.25 684.5 a9.25 9.25 0 1 0 18.5 0 a9.25 9.25 0 1 0 -18.5 0zM157.25 721.5 a9.25 9.25 0 1 0 18.5 0 a9.25 9.25 0 1 0 -18.5 0zM268.25 721.5 a9.25 9.25 0 1 0 18.5 0 a9.25 9.25 0 1 0 -18.5 0z" fill="rgba(242, 248, 254, 1)"></path></g></g><defs><mask id="SvgjsMask1791"><rect width="1476" height="1024" fill="#ffffff"></rect></mask><radialGradient cx="50%" cy="50%" r="898.21" gradientUnits="userSpaceOnUse" id="SvgjsRadialGradient1792"><stop stop-color="rgba(60, 10, 144, 1)" offset="0"></stop><stop stop-color="rgba(56, 16, 94, 1)" offset="0.7"></stop></radialGradient><mask id="SvgjsMask1793"><rect width="1476" height="1024" fill="white"></rect><path d="M494.87 499.5 a4.63 4.63 0 1 0 9.26 0 a4.63 4.63 0 1 0 -9.26 0zM346.87 388.5 a4.63 4.63 0 1 0 9.26 0 a4.63 4.63 0 1 0 -9.26 0zM161.87 462.5 a4.63 4.63 0 1 0 9.26 0 a4.63 4.63 0 1 0 -9.26 0zM531.87 462.5 a4.63 4.63 0 1 0 9.26 0 a4.63 4.63 0 1 0 -9.26 0z" fill="black"></path><path d="M124.87 499.5 a4.63 4.63 0 1 0 9.26 0 a4.63 4.63 0 1 0 -9.26 0zM50.87 536.5 a4.63 4.63 0 1 0 9.26 0 a4.63 4.63 0 1 0 -9.26 0zM124.87 536.5 a4.63 4.63 0 1 0 9.26 0 a4.63 4.63 0 1 0 -9.26 0z" fill="black"></path><path d="M531.87 351.5 a4.63 4.63 0 1 0 9.26 0 a4.63 4.63 0 1 0 -9.26 0zM605.87 388.5 a4.63 4.63 0 1 0 9.26 0 a4.63 4.63 0 1 0 -9.26 0zM568.87 425.5 a4.63 4.63 0 1 0 9.26 0 a4.63 4.63 0 1 0 -9.26 0zM605.87 351.5 a4.63 4.63 0 1 0 9.26 0 a4.63 4.63 0 1 0 -9.26 0z" fill="black"></path><path d="M272.87 573.5 a4.63 4.63 0 1 0 9.26 0 a4.63 4.63 0 1 0 -9.26 0zM272.87 536.5 a4.63 4.63 0 1 0 9.26 0 a4.63 4.63 0 1 0 -9.26 0z" fill="black"></path><path d="M457.87 314.5 a4.63 4.63 0 1 0 9.26 0 a4.63 4.63 0 1 0 -9.26 0z" fill="black"></path><path d="M605.87 647.5 a4.63 4.63 0 1 0 9.26 0 a4.63 4.63 0 1 0 -9.26 0zM457.87 610.5 a4.63 4.63 0 1 0 9.26 0 a4.63 4.63 0 1 0 -9.26 0zM383.87 573.5 a4.63 4.63 0 1 0 9.26 0 a4.63 4.63 0 1 0 -9.26 0zM642.87 573.5 a4.63 4.63 0 1 0 9.26 0 a4.63 4.63 0 1 0 -9.26 0zM531.87 684.5 a4.63 4.63 0 1 0 9.26 0 a4.63 4.63 0 1 0 -9.26 0z" fill="black"></path><path d="M494.87 277.5 a4.63 4.63 0 1 0 9.26 0 a4.63 4.63 0 1 0 -9.26 0zM494.87 203.5 a4.63 4.63 0 1 0 9.26 0 a4.63 4.63 0 1 0 -9.26 0zM198.87 277.5 a4.63 4.63 0 1 0 9.26 0 a4.63 4.63 0 1 0 -9.26 0zM346.87 240.5 a4.63 4.63 0 1 0 9.26 0 a4.63 4.63 0 1 0 -9.26 0z" fill="black"></path><path d="M420.87 684.5 a4.63 4.63 0 1 0 9.26 0 a4.63 4.63 0 1 0 -9.26 0zM457.87 721.5 a4.63 4.63 0 1 0 9.26 0 a4.63 4.63 0 1 0 -9.26 0z" fill="black"></path><path d="M124.87 277.5 a4.63 4.63 0 1 0 9.26 0 a4.63 4.63 0 1 0 -9.26 0z" fill="black"></path><path d="M13.87 684.5 a4.63 4.63 0 1 0 9.26 0 a4.63 4.63 0 1 0 -9.26 0z" fill="black"></path><path d="M198.87 240.5 a4.63 4.63 0 1 0 9.26 0 a4.63 4.63 0 1 0 -9.26 0zM161.87 203.5 a4.63 4.63 0 1 0 9.26 0 a4.63 4.63 0 1 0 -9.26 0zM124.87 203.5 a4.63 4.63 0 1 0 9.26 0 a4.63 4.63 0 1 0 -9.26 0z" fill="black"></path><path d="M272.87 684.5 a4.63 4.63 0 1 0 9.26 0 a4.63 4.63 0 1 0 -9.26 0zM124.87 684.5 a4.63 4.63 0 1 0 9.26 0 a4.63 4.63 0 1 0 -9.26 0zM161.87 721.5 a4.63 4.63 0 1 0 9.26 0 a4.63 4.63 0 1 0 -9.26 0zM272.87 721.5 a4.63 4.63 0 1 0 9.26 0 a4.63 4.63 0 1 0 -9.26 0z" fill="black"></path></mask></defs></svg>